<?xml version="1.0" encoding="utf-8"?>
<svg viewBox="0 0 500 500" xmlns="http://www.w3.org/2000/svg" xmlns:xlink="http://www.w3.org/1999/xlink">
  <defs>
    <pattern x="0" y="0" width="25" height="25" patternUnits="userSpaceOnUse" viewBox="0 0 100 100" id="pattern-0">
      <rect x="0" y="0" width="50" height="100" style="fill: black;"/>
    </pattern>
    <pattern id="pattern-0-0" patternTransform="matrix(0.522872, 0, 0, 0.503107, -15.005905, 142.107851)" xlink:href="#pattern-0"/>
  </defs>
  <rect x="-118.768" y="116.58" width="316.523" height="139.897" rx="6" ry="6" style="paint-order: fill; fill: rgb(93, 0, 255); stroke: rgb(255, 0, 0);"/>
  <path style="fill: rgb(216, 216, 216); stroke: rgb(11, 235, 255);" d="M -70.454 139.173 C -70.454 158.923 -60.521 178.36 -60.521 198.259"/>
  <path style="stroke: rgb(0, 0, 0);" d="M -28.01 201.3 C -27.083 198.625 -27.834 195.829 -27.559 193.045 C -26.484 182.187 -25.479 171.362 -24.85 160.46 C -24.57 155.621 -24.953 150.925 -24.398 146.124 C -24.295 145.237 -24.398 136.572 -24.398 139.607"/>
  <path style="stroke: rgb(255, 0, 0); fill: rgb(255, 0, 0);" d="M -72.711 222.589 C -70.052 226.427 -65.384 228.854 -61.424 231.278 C -47.613 239.735 -39.459 241.664 -25.302 232.581 C -22.529 230.804 -20.298 226.03 -17.625 223.458"/>
  <rect x="123.704" y="116.58" width="0.903" height="139.897" rx="6" ry="6" style="fill: rgb(216, 216, 216); stroke: rgb(0, 0, 0);"/>
  <path d="M 178.791 147.862 C 178.791 157.219 170.906 164.806 161.181 164.806 C 159.675 164.806 158.212 164.623 156.815 164.281 C 156.273 164.926 155.794 165.46 155.428 165.788 C 154.627 166.507 154.239 166.259 153.623 166.874 C 152.749 167.743 152.329 169.974 150.913 171.001 C 149.27 172.193 146.031 173.252 143.914 173.172 C 142.009 173.101 139.954 172.307 138.722 171.001 C 137.384 169.585 136.106 167.027 136.463 164.701 C 136.911 161.796 141.974 156.232 143.011 154.926 C 143.388 154.452 143.271 154.711 143.688 154.274 C 143.882 154.071 144.168 153.754 144.518 153.358 C 143.904 151.633 143.571 149.785 143.571 147.862 C 143.571 138.503 151.455 130.917 161.181 130.917 C 162.527 130.917 163.838 131.062 165.096 131.338 C 166.147 130.732 167.131 130.311 167.62 129.944 C 168.022 129.642 167.988 129.621 168.297 129.292 C 168.816 128.739 169.881 127.281 170.554 126.685 C 171.048 126.249 171.261 126.173 171.91 125.817 C 172.929 125.257 174.56 123.796 176.424 123.645 C 178.784 123.453 183.399 124.24 185.229 125.817 C 186.87 127.231 187.632 130.132 187.487 132.116 C 187.347 134.035 185.872 136.35 184.552 137.547 C 183.388 138.604 181.033 138.75 180.263 139.286 C 179.824 139.589 179.8 139.819 179.585 140.154 C 179.345 140.53 179.389 140.974 178.908 141.457 C 178.644 141.724 178.251 141.952 177.782 142.194 C 178.435 143.965 178.791 145.873 178.791 147.862 Z M -196.991 141.022 C -194.968 140.962 -191.912 141.784 -190.444 143.195 C -188.977 144.607 -188.123 147.548 -188.187 149.495 C -188.244 151.29 -189.087 153.305 -190.444 154.491 C -191.916 155.777 -194.968 156.724 -196.991 156.663 C -198.858 156.608 -200.95 155.798 -202.184 154.491 C -203.521 153.075 -204.504 150.138 -204.441 148.192 C -204.383 146.395 -203.426 144.39 -202.184 143.195 C -200.942 142.001 -198.858 141.079 -196.991 141.022 Z" style="stroke: rgb(0, 0, 0); fill: url(#pattern-0-0); fill-rule: nonzero; paint-order: stroke;"/>
  <text style="fill: rgb(0, 239, 227); font-family: Arial, sans-serif; font-size: 24.2px; stroke-miterlimit: 26; white-space: pre;" x="435.233" y="269.43" transform="matrix(0.357048, 0, 0, 0.340975, -24.473164, 107.232269)">Username:</text>
  <text style="fill: rgb(0, 239, 227); font-family: Arial, sans-serif; font-size: 24.2px; stroke-miterlimit: 26; white-space: pre;" x="435.233" y="269.43" transform="matrix(0.357048, 0, 0, 0.340975, -24.822268, 134.401978)">Password:</text>
</svg>